<svg xmlns="http://www.w3.org/2000/svg" xmlns:xlink="http://www.w3.org/1999/xlink" width="100" zoomAndPan="magnify" viewBox="0 0 75 60" height="80" preserveAspectRatio="xMidYMid meet" version="1.2"><defs><clipPath id="fca256ce97"><path d="M 7.5 0 L 34 0 L 34 27 L 7.5 27 Z M 7.5 0 "/></clipPath><clipPath id="8d0b28bea0"><path d="M 40 0 L 67.5 0 L 67.5 27 L 40 27 Z M 40 0 "/></clipPath><clipPath id="27d8bbc52b"><path d="M 7.5 33 L 34 33 L 34 60 L 7.5 60 Z M 7.5 33 "/></clipPath><clipPath id="32ae45d316"><path d="M 40 33 L 67.5 33 L 67.5 60 L 40 60 Z M 40 33 "/></clipPath></defs><g id="fbaba28852"><g clip-rule="nonzero" clip-path="url(#fca256ce97)"><path style=" stroke:none;fill-rule:nonzero;fill:#1e0c45;fill-opacity:1;" d="M 15.035156 -0.140625 L 26.199219 -0.140625 C 26.703125 -0.140625 27.199219 -0.0898438 27.695312 0.0078125 C 28.1875 0.105469 28.667969 0.25 29.132812 0.445312 C 29.601562 0.636719 30.042969 0.875 30.460938 1.152344 C 30.878906 1.433594 31.269531 1.75 31.625 2.109375 C 31.980469 2.464844 32.296875 2.851562 32.578125 3.269531 C 32.859375 3.691406 33.09375 4.132812 33.289062 4.597656 C 33.480469 5.0625 33.625 5.542969 33.726562 6.039062 C 33.824219 6.53125 33.871094 7.03125 33.871094 7.535156 L 33.871094 18.699219 C 33.871094 19.203125 33.824219 19.699219 33.726562 20.195312 C 33.625 20.6875 33.480469 21.167969 33.289062 21.632812 C 33.09375 22.101562 32.859375 22.542969 32.578125 22.960938 C 32.296875 23.378906 31.980469 23.769531 31.625 24.125 C 31.269531 24.480469 30.878906 24.796875 30.460938 25.078125 C 30.042969 25.359375 29.601562 25.59375 29.132812 25.789062 C 28.667969 25.980469 28.1875 26.125 27.695312 26.226562 C 27.199219 26.324219 26.703125 26.371094 26.199219 26.371094 L 15.035156 26.371094 C 14.53125 26.371094 14.03125 26.324219 13.539062 26.226562 C 13.042969 26.125 12.5625 25.980469 12.097656 25.789062 C 11.632812 25.59375 11.191406 25.359375 10.769531 25.078125 C 10.351562 24.796875 9.964844 24.480469 9.609375 24.125 C 9.25 23.769531 8.933594 23.378906 8.652344 22.960938 C 8.375 22.542969 8.136719 22.101562 7.945312 21.632812 C 7.75 21.167969 7.605469 20.6875 7.507812 20.195312 C 7.410156 19.699219 7.359375 19.203125 7.359375 18.699219 L 7.359375 7.535156 C 7.359375 7.03125 7.410156 6.53125 7.507812 6.039062 C 7.605469 5.542969 7.75 5.0625 7.945312 4.597656 C 8.136719 4.132812 8.375 3.691406 8.652344 3.269531 C 8.933594 2.851562 9.25 2.464844 9.609375 2.109375 C 9.964844 1.75 10.351562 1.433594 10.769531 1.152344 C 11.191406 0.875 11.632812 0.636719 12.097656 0.445312 C 12.5625 0.25 13.042969 0.105469 13.539062 0.0078125 C 14.03125 -0.0898438 14.53125 -0.140625 15.035156 -0.140625 Z M 15.035156 -0.140625 "/></g><g clip-rule="nonzero" clip-path="url(#8d0b28bea0)"><path style=" stroke:none;fill-rule:nonzero;fill:#1e0c45;fill-opacity:1;" d="M 48.523438 -0.140625 L 59.6875 -0.140625 C 60.191406 -0.140625 60.6875 -0.0898438 61.183594 0.0078125 C 61.675781 0.105469 62.15625 0.25 62.621094 0.445312 C 63.089844 0.636719 63.53125 0.875 63.949219 1.152344 C 64.367188 1.433594 64.757812 1.75 65.113281 2.109375 C 65.46875 2.464844 65.789062 2.851562 66.066406 3.269531 C 66.347656 3.691406 66.582031 4.132812 66.777344 4.597656 C 66.96875 5.0625 67.113281 5.542969 67.214844 6.039062 C 67.3125 6.53125 67.359375 7.03125 67.359375 7.535156 L 67.359375 18.699219 C 67.359375 19.203125 67.3125 19.699219 67.214844 20.195312 C 67.113281 20.6875 66.96875 21.167969 66.777344 21.632812 C 66.582031 22.101562 66.347656 22.542969 66.066406 22.960938 C 65.789062 23.378906 65.46875 23.769531 65.113281 24.125 C 64.757812 24.480469 64.367188 24.796875 63.949219 25.078125 C 63.53125 25.359375 63.089844 25.59375 62.621094 25.789062 C 62.15625 25.980469 61.675781 26.125 61.183594 26.226562 C 60.6875 26.324219 60.191406 26.371094 59.6875 26.371094 L 48.523438 26.371094 C 48.019531 26.371094 47.519531 26.324219 47.027344 26.226562 C 46.53125 26.125 46.050781 25.980469 45.585938 25.789062 C 45.121094 25.59375 44.679688 25.359375 44.257812 25.078125 C 43.839844 24.796875 43.453125 24.480469 43.097656 24.125 C 42.742188 23.769531 42.421875 23.378906 42.140625 22.960938 C 41.863281 22.542969 41.625 22.101562 41.433594 21.632812 C 41.238281 21.167969 41.09375 20.6875 40.996094 20.195312 C 40.898438 19.699219 40.847656 19.203125 40.847656 18.699219 L 40.847656 7.535156 C 40.847656 7.03125 40.898438 6.53125 40.996094 6.039062 C 41.09375 5.542969 41.238281 5.0625 41.433594 4.597656 C 41.625 4.132812 41.863281 3.691406 42.140625 3.269531 C 42.421875 2.851562 42.742188 2.464844 43.097656 2.109375 C 43.453125 1.75 43.839844 1.433594 44.257812 1.152344 C 44.679688 0.875 45.121094 0.636719 45.585938 0.445312 C 46.050781 0.25 46.53125 0.105469 47.027344 0.0078125 C 47.519531 -0.0898438 48.019531 -0.140625 48.523438 -0.140625 Z M 48.523438 -0.140625 "/></g><g clip-rule="nonzero" clip-path="url(#27d8bbc52b)"><path style=" stroke:none;fill-rule:nonzero;fill:#1e0c45;fill-opacity:1;" d="M 15.035156 33.347656 L 26.199219 33.347656 C 26.703125 33.347656 27.199219 33.398438 27.695312 33.496094 C 28.1875 33.59375 28.667969 33.738281 29.132812 33.933594 C 29.601562 34.125 30.042969 34.363281 30.460938 34.640625 C 30.878906 34.921875 31.269531 35.242188 31.625 35.597656 C 31.980469 35.953125 32.296875 36.339844 32.578125 36.757812 C 32.859375 37.179688 33.09375 37.621094 33.289062 38.085938 C 33.480469 38.550781 33.625 39.03125 33.726562 39.527344 C 33.824219 40.019531 33.871094 40.519531 33.871094 41.023438 L 33.871094 52.1875 C 33.871094 52.691406 33.824219 53.1875 33.726562 53.683594 C 33.625 54.175781 33.480469 54.65625 33.289062 55.121094 C 33.09375 55.589844 32.859375 56.03125 32.578125 56.449219 C 32.296875 56.867188 31.980469 57.257812 31.625 57.613281 C 31.269531 57.96875 30.878906 58.289062 30.460938 58.566406 C 30.042969 58.847656 29.601562 59.082031 29.132812 59.277344 C 28.667969 59.46875 28.1875 59.613281 27.695312 59.714844 C 27.199219 59.8125 26.703125 59.859375 26.199219 59.859375 L 15.035156 59.859375 C 14.53125 59.859375 14.03125 59.8125 13.539062 59.714844 C 13.042969 59.613281 12.5625 59.46875 12.097656 59.277344 C 11.632812 59.082031 11.191406 58.847656 10.769531 58.566406 C 10.351562 58.289062 9.964844 57.96875 9.609375 57.613281 C 9.25 57.257812 8.933594 56.867188 8.652344 56.449219 C 8.375 56.03125 8.136719 55.589844 7.945312 55.121094 C 7.75 54.65625 7.605469 54.175781 7.507812 53.683594 C 7.410156 53.1875 7.359375 52.691406 7.359375 52.1875 L 7.359375 41.023438 C 7.359375 40.519531 7.410156 40.019531 7.507812 39.527344 C 7.605469 39.03125 7.75 38.550781 7.945312 38.085938 C 8.136719 37.621094 8.375 37.179688 8.652344 36.757812 C 8.933594 36.339844 9.25 35.953125 9.609375 35.597656 C 9.964844 35.242188 10.351562 34.921875 10.769531 34.640625 C 11.191406 34.363281 11.632812 34.125 12.097656 33.933594 C 12.5625 33.738281 13.042969 33.59375 13.539062 33.496094 C 14.03125 33.398438 14.53125 33.347656 15.035156 33.347656 Z M 15.035156 33.347656 "/></g><g clip-rule="nonzero" clip-path="url(#32ae45d316)"><path style=" stroke:none;fill-rule:nonzero;fill:#1e0c45;fill-opacity:1;" d="M 48.523438 33.347656 L 59.6875 33.347656 C 60.191406 33.347656 60.6875 33.398438 61.183594 33.496094 C 61.675781 33.59375 62.15625 33.738281 62.621094 33.933594 C 63.089844 34.125 63.53125 34.363281 63.949219 34.640625 C 64.367188 34.921875 64.757812 35.242188 65.113281 35.597656 C 65.46875 35.953125 65.789062 36.339844 66.066406 36.757812 C 66.347656 37.179688 66.582031 37.621094 66.777344 38.085938 C 66.96875 38.550781 67.113281 39.03125 67.214844 39.527344 C 67.3125 40.019531 67.359375 40.519531 67.359375 41.023438 L 67.359375 52.1875 C 67.359375 52.691406 67.3125 53.1875 67.214844 53.683594 C 67.113281 54.175781 66.96875 54.65625 66.777344 55.121094 C 66.582031 55.589844 66.347656 56.03125 66.066406 56.449219 C 65.789062 56.867188 65.46875 57.257812 65.113281 57.613281 C 64.757812 57.96875 64.367188 58.289062 63.949219 58.566406 C 63.53125 58.847656 63.089844 59.082031 62.621094 59.277344 C 62.15625 59.46875 61.675781 59.613281 61.183594 59.714844 C 60.6875 59.8125 60.191406 59.859375 59.6875 59.859375 L 48.523438 59.859375 C 48.019531 59.859375 47.519531 59.8125 47.027344 59.714844 C 46.53125 59.613281 46.050781 59.46875 45.585938 59.277344 C 45.121094 59.082031 44.679688 58.847656 44.257812 58.566406 C 43.839844 58.289062 43.453125 57.96875 43.097656 57.613281 C 42.742188 57.257812 42.421875 56.867188 42.140625 56.449219 C 41.863281 56.03125 41.625 55.589844 41.433594 55.121094 C 41.238281 54.65625 41.09375 54.175781 40.996094 53.683594 C 40.898438 53.1875 40.847656 52.691406 40.847656 52.1875 L 40.847656 41.023438 C 40.847656 40.519531 40.898438 40.019531 40.996094 39.527344 C 41.09375 39.03125 41.238281 38.550781 41.433594 38.085938 C 41.625 37.621094 41.863281 37.179688 42.140625 36.757812 C 42.421875 36.339844 42.742188 35.953125 43.097656 35.597656 C 43.453125 35.242188 43.839844 34.921875 44.257812 34.640625 C 44.679688 34.363281 45.121094 34.125 45.585938 33.933594 C 46.050781 33.738281 46.53125 33.59375 47.027344 33.496094 C 47.519531 33.398438 48.019531 33.347656 48.523438 33.347656 Z M 48.523438 33.347656 "/></g></g></svg>