<svg xmlns="http://www.w3.org/2000/svg" xmlns:xlink="http://www.w3.org/1999/xlink" width="100" zoomAndPan="magnify" viewBox="0 0 75 60" height="80" preserveAspectRatio="xMidYMid meet" version="1.2"><defs><clipPath id="99047f9d7c"><path d="M 8.363281 0 L 66.863281 0 L 66.863281 60 L 8.363281 60 Z M 8.363281 0 "/></clipPath></defs><g id="cba5886696"><g clip-rule="nonzero" clip-path="url(#99047f9d7c)"><path style=" stroke:none;fill-rule:nonzero;fill:#1e0c45;fill-opacity:1;" d="M 65.523438 33.433594 C 65.171875 32.207031 64.839844 31.050781 64.839844 30 C 64.839844 28.949219 65.171875 27.792969 65.523438 26.566406 C 66.070312 24.648438 66.636719 22.667969 66.011719 20.738281 C 65.355469 18.726562 63.621094 17.378906 62.089844 16.191406 C 61.117188 15.433594 60.195312 14.722656 59.621094 13.929688 C 59.035156 13.121094 58.632812 12.015625 58.207031 10.847656 C 57.515625 8.945312 56.804688 6.980469 55.117188 5.753906 C 53.449219 4.539062 51.371094 4.464844 49.359375 4.394531 C 48.105469 4.347656 46.921875 4.308594 45.953125 3.992188 C 45.046875 3.699219 44.101562 3.054688 43.097656 2.375 C 41.484375 1.277344 39.65625 0.03125 37.5 0.03125 C 35.347656 0.03125 33.519531 1.277344 31.90625 2.375 C 30.902344 3.054688 29.957031 3.699219 29.050781 3.992188 C 28.082031 4.308594 26.898438 4.347656 25.644531 4.394531 C 23.632812 4.464844 21.554688 4.539062 19.886719 5.753906 C 18.199219 6.980469 17.484375 8.945312 16.796875 10.847656 C 16.371094 12.015625 15.96875 13.121094 15.382812 13.929688 C 14.804688 14.722656 13.886719 15.433594 12.914062 16.1875 C 11.382812 17.378906 9.648438 18.726562 8.992188 20.738281 C 8.367188 22.667969 8.933594 24.648438 9.480469 26.566406 C 9.832031 27.792969 10.164062 28.949219 10.164062 30 C 10.164062 31.050781 9.832031 32.207031 9.480469 33.433594 C 8.933594 35.351562 8.367188 37.332031 8.992188 39.261719 C 9.648438 41.273438 11.382812 42.621094 12.914062 43.8125 C 13.886719 44.566406 14.804688 45.277344 15.382812 46.070312 C 15.96875 46.878906 16.371094 47.984375 16.796875 49.152344 C 17.484375 51.054688 18.199219 53.019531 19.886719 54.246094 C 21.554688 55.460938 23.632812 55.535156 25.644531 55.605469 C 26.898438 55.652344 28.082031 55.691406 29.050781 56.007812 C 29.957031 56.300781 30.902344 56.945312 31.90625 57.625 C 33.519531 58.722656 35.347656 59.96875 37.5 59.96875 C 39.65625 59.96875 41.484375 58.722656 43.097656 57.625 C 44.101562 56.945312 45.046875 56.300781 45.953125 56.007812 C 46.921875 55.691406 48.105469 55.652344 49.359375 55.605469 C 51.371094 55.535156 53.449219 55.460938 55.117188 54.246094 C 56.804688 53.019531 57.515625 51.054688 58.207031 49.152344 C 58.632812 47.984375 59.035156 46.878906 59.621094 46.070312 C 60.195312 45.277344 61.117188 44.566406 62.089844 43.8125 C 63.621094 42.621094 65.355469 41.273438 66.011719 39.261719 C 66.636719 37.332031 66.070312 35.351562 65.523438 33.433594 Z M 62.996094 34.15625 C 63.453125 35.765625 63.886719 37.285156 63.507812 38.449219 C 63.105469 39.691406 61.828125 40.683594 60.476562 41.734375 C 59.402344 42.566406 58.289062 43.429688 57.496094 44.523438 C 56.6875 45.632812 56.203125 46.964844 55.734375 48.257812 C 55.15625 49.855469 54.609375 51.367188 53.570312 52.121094 C 52.554688 52.859375 50.957031 52.917969 49.265625 52.980469 C 47.886719 53.027344 46.457031 53.078125 45.140625 53.507812 C 43.878906 53.917969 42.730469 54.699219 41.621094 55.453125 C 40.195312 56.421875 38.847656 57.339844 37.5 57.339844 C 36.15625 57.339844 34.808594 56.421875 33.382812 55.453125 C 32.273438 54.699219 31.125 53.917969 29.863281 53.507812 C 28.542969 53.078125 27.117188 53.027344 25.738281 52.980469 C 24.046875 52.917969 22.449219 52.859375 21.433594 52.121094 C 20.394531 51.367188 19.847656 49.855469 19.265625 48.257812 C 18.800781 46.964844 18.316406 45.632812 17.507812 44.523438 C 16.710938 43.429688 15.601562 42.566406 14.527344 41.734375 C 13.175781 40.683594 11.898438 39.691406 11.496094 38.449219 C 11.117188 37.285156 11.550781 35.765625 12.007812 34.15625 C 12.394531 32.8125 12.792969 31.417969 12.792969 30 C 12.792969 28.582031 12.394531 27.1875 12.007812 25.84375 C 11.550781 24.234375 11.117188 22.714844 11.496094 21.550781 C 11.898438 20.308594 13.175781 19.316406 14.527344 18.265625 C 15.601562 17.433594 16.714844 16.570312 17.507812 15.476562 C 18.316406 14.367188 18.800781 13.035156 19.265625 11.742188 C 19.847656 10.144531 20.394531 8.632812 21.433594 7.878906 C 22.449219 7.140625 24.046875 7.082031 25.738281 7.019531 C 27.117188 6.972656 28.542969 6.921875 29.863281 6.492188 C 31.125 6.082031 32.273438 5.300781 33.382812 4.546875 C 34.808594 3.578125 36.15625 2.660156 37.5 2.660156 C 38.847656 2.660156 40.195312 3.578125 41.621094 4.546875 C 42.730469 5.300781 43.878906 6.082031 45.140625 6.492188 C 46.457031 6.921875 47.886719 6.972656 49.265625 7.019531 C 50.957031 7.082031 52.554688 7.140625 53.570312 7.878906 C 54.609375 8.632812 55.15625 10.144531 55.734375 11.742188 C 56.203125 13.035156 56.6875 14.367188 57.496094 15.476562 C 58.289062 16.570312 59.402344 17.433594 60.476562 18.265625 C 61.828125 19.316406 63.105469 20.308594 63.507812 21.550781 C 63.886719 22.714844 63.453125 24.234375 62.996094 25.84375 C 62.609375 27.1875 62.210938 28.582031 62.210938 30 C 62.210938 31.417969 62.609375 32.8125 62.996094 34.15625 Z M 62.996094 34.15625 "/></g><path style=" stroke:none;fill-rule:nonzero;fill:#1e0c45;fill-opacity:1;" d="M 51.136719 16.613281 C 50.046875 15.523438 48.273438 15.523438 47.183594 16.613281 L 32.640625 31.152344 L 27.820312 26.332031 C 26.730469 25.242188 24.957031 25.242188 23.867188 26.332031 L 20.714844 29.484375 C 20.1875 30.011719 19.894531 30.714844 19.894531 31.460938 C 19.894531 32.207031 20.1875 32.90625 20.714844 33.433594 L 30.667969 43.386719 C 31.210938 43.933594 31.925781 44.207031 32.640625 44.207031 C 33.359375 44.207031 34.074219 43.933594 34.617188 43.386719 L 54.289062 23.714844 C 54.816406 23.1875 55.109375 22.488281 55.109375 21.742188 C 55.109375 20.996094 54.816406 20.292969 54.289062 19.765625 Z M 52.429688 21.855469 L 32.757812 41.53125 C 32.695312 41.59375 32.589844 41.59375 32.527344 41.53125 L 22.574219 31.578125 C 22.539062 31.542969 22.523438 31.503906 22.523438 31.460938 C 22.523438 31.414062 22.539062 31.375 22.574219 31.34375 L 25.726562 28.1875 C 25.757812 28.15625 25.796875 28.140625 25.84375 28.140625 C 25.886719 28.140625 25.929688 28.15625 25.960938 28.1875 L 31.714844 33.941406 C 31.960938 34.1875 32.292969 34.328125 32.640625 34.328125 C 32.992188 34.328125 33.324219 34.1875 33.570312 33.941406 L 49.042969 18.46875 C 49.109375 18.40625 49.214844 18.40625 49.277344 18.46875 L 52.429688 21.625 C 52.464844 21.65625 52.480469 21.695312 52.480469 21.742188 C 52.480469 21.785156 52.464844 21.824219 52.429688 21.855469 Z M 52.429688 21.855469 "/></g></svg>