<svg xmlns="http://www.w3.org/2000/svg" xmlns:xlink="http://www.w3.org/1999/xlink" width="100" zoomAndPan="magnify" viewBox="0 0 75 60" height="80" preserveAspectRatio="xMidYMid meet" version="1.2"><defs><clipPath id="fe8f01bf42"><path d="M 7.5 0 L 67.5 0 L 67.5 60 L 7.5 60 Z M 7.5 0 "/></clipPath></defs><g id="28d2568eef"><path style=" stroke:none;fill-rule:nonzero;fill:#1e0c45;fill-opacity:1;" d="M 27.5 54 L 47.5 54 C 50.261719 54 52.5 51.761719 52.5 49 C 52.5 46.238281 50.261719 44 47.5 44 L 27.5 44 C 24.738281 44 22.5 46.238281 22.5 49 C 22.5 51.761719 24.738281 54 27.5 54 Z M 45.5 46 L 47.5 46 C 49.148438 46 50.5 47.351562 50.5 49 C 50.5 50.648438 49.148438 52 47.5 52 L 45.5 52 Z M 38.5 46 L 43.5 46 L 43.5 52 L 38.5 52 Z M 31.5 46 L 36.5 46 L 36.5 52 L 31.5 52 Z M 27.5 46 L 29.5 46 L 29.5 52 L 27.5 52 C 25.851562 52 24.5 50.648438 24.5 49 C 24.5 47.351562 25.851562 46 27.5 46 Z M 27.5 46 "/><path style=" stroke:none;fill-rule:nonzero;fill:#1e0c45;fill-opacity:1;" d="M 33.5 32 C 33.5 28.140625 30.359375 25 26.5 25 C 22.640625 25 19.5 28.140625 19.5 32 C 19.5 35.859375 22.640625 39 26.5 39 C 30.359375 39 33.5 35.859375 33.5 32 Z M 21.5 32 C 21.5 29.238281 23.738281 27 26.5 27 C 29.261719 27 31.5 29.238281 31.5 32 C 31.5 34.761719 29.261719 37 26.5 37 C 23.738281 37 21.5 34.761719 21.5 32 Z M 21.5 32 "/><path style=" stroke:none;fill-rule:nonzero;fill:#1e0c45;fill-opacity:1;" d="M 53.46875 35.480469 C 53.96875 35.71875 54.558594 35.511719 54.808594 35.019531 C 55.269531 34.078125 55.5 33.058594 55.5 32 C 55.5 28.140625 52.359375 25 48.5 25 C 44.640625 25 41.5 28.140625 41.5 32 C 41.5 35.859375 44.640625 39 48.5 39 C 49.558594 39 50.578125 38.769531 51.519531 38.308594 C 52.019531 38.070312 52.21875 37.46875 51.980469 36.96875 C 51.738281 36.46875 51.140625 36.269531 50.640625 36.511719 C 49.96875 36.839844 49.25 37 48.5 37 C 45.738281 37 43.5 34.761719 43.5 32 C 43.5 29.238281 45.738281 27 48.5 27 C 51.261719 27 53.5 29.238281 53.5 32 C 53.5 32.75 53.339844 33.480469 53.011719 34.140625 C 52.769531 34.640625 52.96875 35.230469 53.46875 35.480469 Z M 53.46875 35.480469 "/><g clip-rule="nonzero" clip-path="url(#fe8f01bf42)"><path style=" stroke:none;fill-rule:nonzero;fill:#1e0c45;fill-opacity:1;" d="M 64.5 30 L 62.5 30 L 62.5 23 C 62.5 19.140625 59.359375 16 55.5 16 L 48.5 16 L 48.5 14 C 48.5 12.351562 47.148438 11 45.5 11 L 38.5 11 L 38.5 5.820312 C 39.660156 5.410156 40.5 4.308594 40.5 3 C 40.5 1.351562 39.148438 0 37.5 0 C 35.851562 0 34.5 1.351562 34.5 3 C 34.5 4.300781 35.339844 5.398438 36.5 5.820312 L 36.5 11 L 29.5 11 C 27.851562 11 26.5 12.351562 26.5 14 L 26.5 16 L 19.5 16 C 15.640625 16 12.5 19.140625 12.5 23 L 12.5 30 L 10.5 30 C 8.851562 30 7.5 31.351562 7.5 33 L 7.5 43 C 7.5 44.648438 8.851562 46 10.5 46 L 12.5 46 L 12.5 53 C 12.5 56.859375 15.640625 60 19.5 60 L 47.5 60 C 48.050781 60 48.5 59.550781 48.5 59 C 48.5 58.449219 48.050781 58 47.5 58 L 19.5 58 C 16.738281 58 14.5 55.761719 14.5 53 L 14.5 43 C 14.5 42.449219 14.050781 42 13.5 42 C 12.949219 42 12.5 42.449219 12.5 43 L 12.5 44 L 10.5 44 C 9.949219 44 9.5 43.550781 9.5 43 L 9.5 33 C 9.5 32.449219 9.949219 32 10.5 32 L 12.5 32 L 12.5 39 C 12.5 39.550781 12.949219 40 13.5 40 C 14.050781 40 14.5 39.550781 14.5 39 L 14.5 23 C 14.5 20.238281 16.738281 18 19.5 18 L 32.5 18 C 33.050781 18 33.5 17.550781 33.5 17 C 33.5 16.449219 33.050781 16 32.5 16 L 28.5 16 L 28.5 14 C 28.5 13.449219 28.949219 13 29.5 13 L 45.5 13 C 46.050781 13 46.5 13.449219 46.5 14 L 46.5 16 L 36.5 16 C 35.949219 16 35.5 16.449219 35.5 17 C 35.5 17.550781 35.949219 18 36.5 18 L 55.5 18 C 58.261719 18 60.5 20.238281 60.5 23 L 60.5 53 C 60.5 55.761719 58.261719 58 55.5 58 L 51.5 58 C 50.949219 58 50.5 58.449219 50.5 59 C 50.5 59.550781 50.949219 60 51.5 60 L 55.5 60 C 59.359375 60 62.5 56.859375 62.5 53 L 62.5 46 L 64.5 46 C 66.148438 46 67.5 44.648438 67.5 43 L 67.5 33 C 67.5 31.351562 66.148438 30 64.5 30 Z M 37.5 4 C 36.949219 4 36.5 3.550781 36.5 3 C 36.5 2.449219 36.949219 2 37.5 2 C 38.050781 2 38.5 2.449219 38.5 3 C 38.5 3.550781 38.050781 4 37.5 4 Z M 65.5 43 C 65.5 43.550781 65.050781 44 64.5 44 L 62.5 44 L 62.5 32 L 64.5 32 C 65.050781 32 65.5 32.449219 65.5 33 Z M 65.5 43 "/></g></g></svg>