<svg xmlns="http://www.w3.org/2000/svg" xmlns:xlink="http://www.w3.org/1999/xlink" width="100" zoomAndPan="magnify" viewBox="0 0 75 60" height="80" preserveAspectRatio="xMidYMid meet" version="1.2"><defs><clipPath id="a8a8e16f27"><path d="M 8.917969 0 L 65.917969 0 L 65.917969 60 L 8.917969 60 Z M 8.917969 0 "/></clipPath></defs><g id="def4706d01"><g clip-rule="nonzero" clip-path="url(#a8a8e16f27)"><path style=" stroke:none;fill-rule:evenodd;fill:#1e0c45;fill-opacity:1;" d="M 8.921875 2.855469 C 8.921875 1.277344 10.203125 0 11.78125 0 L 63.207031 0 C 64.785156 0 66.066406 1.277344 66.066406 2.855469 L 66.066406 11.429688 C 66.066406 12.261719 65.703125 13.054688 65.066406 13.597656 L 46.066406 29.886719 L 46.066406 51.429688 C 46.066406 52.511719 45.453125 53.5 44.488281 53.984375 L 33.058594 59.699219 C 32.179688 60.136719 31.136719 60.09375 30.296875 59.585938 C 29.457031 59.074219 28.9375 58.167969 28.921875 57.1875 L 28.496094 29.882812 L 9.898438 13.578125 C 9.277344 13.035156 8.921875 12.25 8.921875 11.429688 Z M 14.636719 5.714844 L 14.636719 10.132812 L 33.21875 26.421875 C 33.824219 26.957031 34.179688 27.71875 34.191406 28.527344 L 34.566406 52.554688 L 40.351562 49.664062 L 40.351562 28.570312 C 40.351562 27.738281 40.714844 26.945312 41.347656 26.402344 L 60.351562 10.113281 L 60.351562 5.714844 Z M 14.636719 5.714844 "/></g></g></svg>