<svg xmlns="http://www.w3.org/2000/svg" xmlns:xlink="http://www.w3.org/1999/xlink" width="100" zoomAndPan="magnify" viewBox="0 0 75 60" height="80" preserveAspectRatio="xMidYMid meet" version="1.2"><defs><clipPath id="27b5756bc1"><path d="M 10.726562 0 L 63.976562 0 L 63.976562 60 L 10.726562 60 Z M 10.726562 0 "/></clipPath></defs><g id="52dabc672e"><g clip-rule="nonzero" clip-path="url(#27b5756bc1)"><path style=" stroke:none;fill-rule:nonzero;fill:#1e0c45;fill-opacity:1;" d="M 56.664062 31.292969 L 53.105469 28.300781 L 63.621094 15.925781 C 64.269531 15.117188 64.1875 13.90625 63.378906 13.257812 C 62.570312 12.609375 61.355469 12.691406 60.710938 13.5 L 50.195312 25.875 L 38.546875 15.925781 L 49.0625 3.550781 C 49.710938 2.742188 49.628906 1.53125 48.820312 0.882812 C 48.011719 0.234375 46.796875 0.316406 46.152344 1.125 L 35.636719 13.5 L 32.078125 10.507812 C 30.863281 9.457031 29.085938 9.617188 28.035156 10.832031 C 27.144531 11.882812 27.144531 13.417969 27.953125 14.472656 L 16.46875 27.976562 C 12.988281 32.101562 13.476562 38.25 17.601562 41.726562 L 19.863281 43.667969 C 18.652344 45.609375 16.546875 48.84375 13.394531 52.566406 L 10.726562 55.71875 L 13.070312 57.742188 L 15.417969 59.765625 L 18.085938 56.609375 C 21.238281 52.890625 24.070312 50.300781 25.769531 48.765625 L 28.035156 50.707031 C 32.160156 54.183594 38.304688 53.699219 41.78125 49.574219 L 53.269531 35.984375 C 54.402344 36.632812 55.9375 36.390625 56.828125 35.339844 C 57.960938 34.125 57.878906 32.34375 56.664062 31.292969 Z M 56.664062 31.292969 "/></g></g></svg>