<svg xmlns="http://www.w3.org/2000/svg" xmlns:xlink="http://www.w3.org/1999/xlink" width="100" zoomAndPan="magnify" viewBox="0 0 75 60" height="80" preserveAspectRatio="xMidYMid meet" version="1.2"><defs><clipPath id="d2634155bc"><path d="M 6 1.449219 L 68 1.449219 L 68 60 L 6 60 Z M 6 1.449219 "/></clipPath></defs><g id="1c30be29eb"><g clip-rule="nonzero" clip-path="url(#d2634155bc)"><path style=" stroke:none;fill-rule:nonzero;fill:#1e0c45;fill-opacity:1;" d="M 36.566406 61.15625 C 27.023438 61.15625 17.480469 61.148438 7.9375 61.164062 C 6.65625 61.164062 6.4375 60.375 6.351562 59.371094 C 6.070312 55.96875 6.730469 52.71875 8.070312 49.625 C 11.222656 42.316406 16 36.503906 23.402344 33.125 C 24.773438 32.5 25.90625 32.605469 27.28125 33.363281 C 32.808594 36.390625 38.65625 37.371094 44.769531 35.390625 C 45.914062 35.023438 46.984375 34.339844 47.996094 33.664062 C 48.824219 33.109375 49.507812 33.035156 50.394531 33.515625 C 58.300781 37.808594 63.960938 44.03125 66.734375 52.675781 C 67.3125 54.464844 67.589844 56.363281 67.875 58.234375 C 68.222656 60.425781 67.355469 61.363281 65.046875 61.402344 C 62.945312 61.4375 60.835938 61.390625 58.734375 61.390625 C 51.34375 61.390625 43.957031 61.390625 36.566406 61.390625 C 36.566406 61.3125 36.566406 61.238281 36.566406 61.160156 Z M 38.023438 1.4375 C 29.140625 1.460938 22.074219 8.257812 22.078125 16.777344 C 22.078125 25.132812 29.238281 32.074219 37.792969 32.035156 C 46.261719 31.996094 53.109375 25.175781 53.097656 16.792969 C 53.085938 8.4375 46.191406 1.421875 38.027344 1.4375 Z M 38.023438 1.4375 "/></g></g></svg>